M48
; DRILL file {KiCad 7.0.1} date Thu Apr 13 11:59:38 2023
; FORMAT={-:-/ absolute / metric / decimal}
; #@! TF.CreationDate,2023-04-13T11:59:38+02:00
; #@! TF.GenerationSoftware,Kicad,Pcbnew,7.0.1
; #@! TF.FileFunction,Plated,1,2,PTH
FMAT,2
METRIC
; #@! TA.AperFunction,Plated,PTH,ViaDrill
T1C0.400
; #@! TA.AperFunction,Plated,PTH,ComponentDrill
T2C0.950
; #@! TA.AperFunction,Plated,PTH,ComponentDrill
T3C3.200
%
G90
G05
T1
X44.958Y-53.086
X45.161Y-60.655
X49.327Y-65.989
X52.375Y-48.311
X52.426Y-51.308
X56.236Y-62.941
X57.048Y-51.257
X62.611Y-51.562
X62.611Y-56.261
X63.094Y-69.85
X64.414Y-60.808
X64.897Y-50.038
X64.897Y-56.769
X66.294Y-52.121
X68.326Y-51.943
X70.307Y-67.208
X70.968Y-60.046
X70.968Y-60.046
X70.968Y-60.046
X71.018Y-60.147
X71.12Y-61.722
X72.695Y-65.684
X72.898Y-50.165
X76.81Y-47.396
X76.86Y-53.289
X77.013Y-67.056
T2
X56.976Y-45.212
X59.476Y-45.212
X61.976Y-45.212
X64.476Y-45.212
X66.976Y-45.212
X69.476Y-45.212
T3
X45.0Y-45.0
X45.0Y-70.0
X82.0Y-45.0
X82.0Y-70.0
T0
M30
