%TF.GenerationSoftware,KiCad,Pcbnew,7.0.1*%
%TF.CreationDate,2023-04-13T11:59:34+02:00*%
%TF.ProjectId,PCBGYRO,50434247-5952-44f2-9e6b-696361645f70,rev?*%
%TF.SameCoordinates,Original*%
%TF.FileFunction,Copper,L2,Bot*%
%TF.FilePolarity,Positive*%
%FSLAX46Y46*%
G04 Gerber Fmt 4.6, Leading zero omitted, Abs format (unit mm)*
G04 Created by KiCad (PCBNEW 7.0.1) date 2023-04-13 11:59:34*
%MOMM*%
%LPD*%
G01*
G04 APERTURE LIST*
G04 Aperture macros list*
%AMRoundRect*
0 Rectangle with rounded corners*
0 $1 Rounding radius*
0 $2 $3 $4 $5 $6 $7 $8 $9 X,Y pos of 4 corners*
0 Add a 4 corners polygon primitive as box body*
4,1,4,$2,$3,$4,$5,$6,$7,$8,$9,$2,$3,0*
0 Add four circle primitives for the rounded corners*
1,1,$1+$1,$2,$3*
1,1,$1+$1,$4,$5*
1,1,$1+$1,$6,$7*
1,1,$1+$1,$8,$9*
0 Add four rect primitives between the rounded corners*
20,1,$1+$1,$2,$3,$4,$5,0*
20,1,$1+$1,$4,$5,$6,$7,0*
20,1,$1+$1,$6,$7,$8,$9,0*
20,1,$1+$1,$8,$9,$2,$3,0*%
G04 Aperture macros list end*
%ADD10C,0.300000*%
%TA.AperFunction,NonConductor*%
%ADD11C,0.300000*%
%TD*%
%TA.AperFunction,ComponentPad*%
%ADD12C,5.600000*%
%TD*%
%TA.AperFunction,ComponentPad*%
%ADD13RoundRect,0.250000X-0.600000X-0.725000X0.600000X-0.725000X0.600000X0.725000X-0.600000X0.725000X0*%
%TD*%
%TA.AperFunction,ComponentPad*%
%ADD14O,1.700000X1.950000*%
%TD*%
%TA.AperFunction,ViaPad*%
%ADD15C,0.800000*%
%TD*%
%TA.AperFunction,Conductor*%
%ADD16C,0.300000*%
%TD*%
G04 APERTURE END LIST*
D10*
D11*
X80067257Y-52421514D02*
X79852971Y-52492942D01*
X79852971Y-52492942D02*
X79781542Y-52564371D01*
X79781542Y-52564371D02*
X79710114Y-52707228D01*
X79710114Y-52707228D02*
X79710114Y-52921514D01*
X79710114Y-52921514D02*
X79781542Y-53064371D01*
X79781542Y-53064371D02*
X79852971Y-53135800D01*
X79852971Y-53135800D02*
X79995828Y-53207228D01*
X79995828Y-53207228D02*
X80567257Y-53207228D01*
X80567257Y-53207228D02*
X80567257Y-51707228D01*
X80567257Y-51707228D02*
X80067257Y-51707228D01*
X80067257Y-51707228D02*
X79924400Y-51778657D01*
X79924400Y-51778657D02*
X79852971Y-51850085D01*
X79852971Y-51850085D02*
X79781542Y-51992942D01*
X79781542Y-51992942D02*
X79781542Y-52135800D01*
X79781542Y-52135800D02*
X79852971Y-52278657D01*
X79852971Y-52278657D02*
X79924400Y-52350085D01*
X79924400Y-52350085D02*
X80067257Y-52421514D01*
X80067257Y-52421514D02*
X80567257Y-52421514D01*
D12*
%TO.P,H4,1,1*%
%TO.N,GND*%
X82000000Y-45000000D03*
%TD*%
%TO.P,H2,1,1*%
%TO.N,GND*%
X82000000Y-70000000D03*
%TD*%
%TO.P,H3,1,1*%
%TO.N,GND*%
X45000000Y-45000000D03*
%TD*%
%TO.P,H1,1,1*%
%TO.N,GND*%
X45000000Y-70000000D03*
%TD*%
D13*
%TO.P,J1,1,Pin_1*%
%TO.N,+5V*%
X56976000Y-45212000D03*
D14*
%TO.P,J1,2,Pin_2*%
%TO.N,CS*%
X59476000Y-45212000D03*
%TO.P,J1,3,Pin_3*%
%TO.N,MISO*%
X61976000Y-45212000D03*
%TO.P,J1,4,Pin_4*%
%TO.N,MOSI*%
X64476000Y-45212000D03*
%TO.P,J1,5,Pin_5*%
%TO.N,SCLK*%
X66976000Y-45212000D03*
%TO.P,J1,6,Pin_6*%
%TO.N,GND*%
X69476000Y-45212000D03*
%TD*%
D15*
%TO.N,GND*%
X44958000Y-53086000D03*
X56235600Y-62941200D03*
X76809600Y-47396400D03*
X71018400Y-60147200D03*
X70307200Y-67208400D03*
X70967600Y-60045600D03*
X70967600Y-60045600D03*
X49326800Y-65989200D03*
X76860400Y-53289200D03*
X52425600Y-51308000D03*
X66294000Y-52120800D03*
X70967600Y-60045600D03*
X63093600Y-69850000D03*
X57048400Y-51257200D03*
X72694800Y-65684400D03*
X64414400Y-60807600D03*
X71120000Y-61722000D03*
X45161200Y-60655200D03*
X52374800Y-48310800D03*
X77012800Y-67056000D03*
%TO.N,CS*%
X62611000Y-56261000D03*
X62611000Y-51562000D03*
%TO.N,MISO*%
X64897000Y-50038000D03*
X64897000Y-56769000D03*
%TO.N,SCLK*%
X72898000Y-50165000D03*
X68326000Y-51943000D03*
%TD*%
D16*
%TO.N,CS*%
X62611000Y-56261000D02*
X62611000Y-51562000D01*
%TO.N,MISO*%
X64897000Y-56769000D02*
X64897000Y-50038000D01*
%TO.N,SCLK*%
X71120000Y-51943000D02*
X72517000Y-50546000D01*
X72517000Y-50546000D02*
X72898000Y-50165000D01*
X68326000Y-51943000D02*
X71120000Y-51943000D01*
%TD*%
%TA.AperFunction,Conductor*%
%TO.N,GND*%
G36*
X85866200Y-40402613D02*
G01*
X85911587Y-40448000D01*
X85928200Y-40510000D01*
X85928200Y-73764100D01*
X85911587Y-73826100D01*
X85866200Y-73871487D01*
X85804200Y-73888100D01*
X41323300Y-73888100D01*
X41261300Y-73871487D01*
X41215913Y-73826100D01*
X41199300Y-73764100D01*
X41199300Y-72506295D01*
X42847255Y-72506295D01*
X42847256Y-72506296D01*
X42860485Y-72518828D01*
X43145363Y-72735386D01*
X43451984Y-72919873D01*
X43776746Y-73070124D01*
X44115859Y-73184385D01*
X44465335Y-73261310D01*
X44821078Y-73300000D01*
X45178922Y-73300000D01*
X45534664Y-73261310D01*
X45884140Y-73184385D01*
X46223253Y-73070124D01*
X46548015Y-72919873D01*
X46854636Y-72735386D01*
X47139515Y-72518827D01*
X47152742Y-72506297D01*
X47152743Y-72506295D01*
X79847255Y-72506295D01*
X79847256Y-72506296D01*
X79860485Y-72518828D01*
X80145363Y-72735386D01*
X80451984Y-72919873D01*
X80776746Y-73070124D01*
X81115859Y-73184385D01*
X81465335Y-73261310D01*
X81821078Y-73300000D01*
X82178922Y-73300000D01*
X82534664Y-73261310D01*
X82884140Y-73184385D01*
X83223253Y-73070124D01*
X83548015Y-72919873D01*
X83854636Y-72735386D01*
X84139515Y-72518827D01*
X84152742Y-72506297D01*
X84152743Y-72506295D01*
X82000000Y-70353553D01*
X79847255Y-72506295D01*
X47152743Y-72506295D01*
X45000000Y-70353553D01*
X42847255Y-72506295D01*
X41199300Y-72506295D01*
X41199300Y-70000000D01*
X41695152Y-70000000D01*
X41714525Y-70357310D01*
X41772419Y-70710451D01*
X41868149Y-71055241D01*
X42000601Y-71387670D01*
X42168218Y-71703829D01*
X42369031Y-72000004D01*
X42496441Y-72150003D01*
X42496442Y-72150004D01*
X44646447Y-70000001D01*
X45353553Y-70000001D01*
X47503556Y-72150003D01*
X47630968Y-72000004D01*
X47831781Y-71703829D01*
X47999398Y-71387670D01*
X48131850Y-71055241D01*
X48227580Y-70710451D01*
X48285474Y-70357310D01*
X48304847Y-70000000D01*
X48304847Y-69999999D01*
X78695152Y-69999999D01*
X78714525Y-70357310D01*
X78772419Y-70710451D01*
X78868149Y-71055241D01*
X79000601Y-71387670D01*
X79168218Y-71703829D01*
X79369031Y-72000004D01*
X79496441Y-72150003D01*
X79496442Y-72150004D01*
X81646447Y-70000001D01*
X82353553Y-70000001D01*
X84503556Y-72150003D01*
X84630968Y-72000004D01*
X84831781Y-71703829D01*
X84999398Y-71387670D01*
X85131850Y-71055241D01*
X85227580Y-70710451D01*
X85285474Y-70357310D01*
X85304847Y-69999999D01*
X85285474Y-69642689D01*
X85227580Y-69289548D01*
X85131850Y-68944758D01*
X84999398Y-68612329D01*
X84831781Y-68296170D01*
X84630968Y-67999995D01*
X84503557Y-67849995D01*
X84503556Y-67849994D01*
X82353553Y-70000000D01*
X82353553Y-70000001D01*
X81646447Y-70000001D01*
X81646447Y-69999999D01*
X79496442Y-67849994D01*
X79496441Y-67849995D01*
X79369030Y-67999995D01*
X79168218Y-68296170D01*
X79000601Y-68612329D01*
X78868149Y-68944758D01*
X78772419Y-69289548D01*
X78714525Y-69642689D01*
X78695152Y-69999999D01*
X48304847Y-69999999D01*
X48285474Y-69642689D01*
X48227580Y-69289548D01*
X48131850Y-68944758D01*
X47999398Y-68612329D01*
X47831781Y-68296170D01*
X47630968Y-67999995D01*
X47503557Y-67849995D01*
X47503556Y-67849994D01*
X45353553Y-70000000D01*
X45353553Y-70000001D01*
X44646447Y-70000001D01*
X44646447Y-70000000D01*
X42496442Y-67849994D01*
X42496441Y-67849995D01*
X42369030Y-67999995D01*
X42168218Y-68296170D01*
X42000601Y-68612329D01*
X41868149Y-68944758D01*
X41772419Y-69289548D01*
X41714525Y-69642689D01*
X41695152Y-70000000D01*
X41199300Y-70000000D01*
X41199300Y-67493703D01*
X42847255Y-67493703D01*
X45000000Y-69646447D01*
X45000001Y-69646447D01*
X47152743Y-67493703D01*
X79847255Y-67493703D01*
X82000000Y-69646447D01*
X82000001Y-69646447D01*
X84152743Y-67493703D01*
X84152742Y-67493702D01*
X84139514Y-67481171D01*
X83854636Y-67264613D01*
X83548015Y-67080126D01*
X83223253Y-66929875D01*
X82884140Y-66815614D01*
X82534664Y-66738689D01*
X82178922Y-66700000D01*
X81821078Y-66700000D01*
X81465335Y-66738689D01*
X81115859Y-66815614D01*
X80776746Y-66929875D01*
X80451984Y-67080126D01*
X80145363Y-67264613D01*
X79860486Y-67481170D01*
X79847256Y-67493702D01*
X79847255Y-67493703D01*
X47152743Y-67493703D01*
X47152742Y-67493702D01*
X47139514Y-67481171D01*
X46854636Y-67264613D01*
X46548015Y-67080126D01*
X46223253Y-66929875D01*
X45884140Y-66815614D01*
X45534664Y-66738689D01*
X45178922Y-66700000D01*
X44821078Y-66700000D01*
X44465335Y-66738689D01*
X44115859Y-66815614D01*
X43776746Y-66929875D01*
X43451984Y-67080126D01*
X43145363Y-67264613D01*
X42860486Y-67481170D01*
X42847256Y-67493702D01*
X42847255Y-67493703D01*
X41199300Y-67493703D01*
X41199300Y-56260999D01*
X61605659Y-56260999D01*
X61624976Y-56457133D01*
X61682185Y-56645726D01*
X61682186Y-56645727D01*
X61775090Y-56819538D01*
X61900117Y-56971883D01*
X62052462Y-57096910D01*
X62226273Y-57189814D01*
X62414868Y-57247024D01*
X62611000Y-57266341D01*
X62807132Y-57247024D01*
X62995727Y-57189814D01*
X63169538Y-57096910D01*
X63321883Y-56971883D01*
X63446910Y-56819538D01*
X63473923Y-56769000D01*
X63891659Y-56769000D01*
X63910976Y-56965133D01*
X63968185Y-57153726D01*
X63968186Y-57153727D01*
X64061090Y-57327538D01*
X64186117Y-57479883D01*
X64338462Y-57604910D01*
X64512273Y-57697814D01*
X64700868Y-57755024D01*
X64897000Y-57774341D01*
X65093132Y-57755024D01*
X65281727Y-57697814D01*
X65455538Y-57604910D01*
X65607883Y-57479883D01*
X65732910Y-57327538D01*
X65825814Y-57153727D01*
X65883024Y-56965132D01*
X65902341Y-56769000D01*
X65883024Y-56572868D01*
X65825814Y-56384273D01*
X65732910Y-56210462D01*
X65675647Y-56140687D01*
X65654749Y-56103796D01*
X65647500Y-56062022D01*
X65647500Y-51943000D01*
X67320659Y-51943000D01*
X67339976Y-52139133D01*
X67397185Y-52327726D01*
X67478092Y-52479091D01*
X67490090Y-52501538D01*
X67615117Y-52653883D01*
X67767462Y-52778910D01*
X67941273Y-52871814D01*
X68129868Y-52929024D01*
X68326000Y-52948341D01*
X68522132Y-52929024D01*
X68710727Y-52871814D01*
X68884538Y-52778910D01*
X68954312Y-52721647D01*
X68991204Y-52700749D01*
X69032978Y-52693500D01*
X71056294Y-52693500D01*
X71074264Y-52694809D01*
X71078320Y-52695402D01*
X71098023Y-52698289D01*
X71147368Y-52693972D01*
X71158176Y-52693500D01*
X71163706Y-52693500D01*
X71163709Y-52693500D01*
X71194550Y-52689894D01*
X71198031Y-52689539D01*
X71272797Y-52682999D01*
X71272797Y-52682998D01*
X71274052Y-52682889D01*
X71293062Y-52678674D01*
X71294250Y-52678241D01*
X71294255Y-52678241D01*
X71364820Y-52652557D01*
X71368095Y-52651419D01*
X71439334Y-52627814D01*
X71439336Y-52627812D01*
X71440536Y-52627415D01*
X71458063Y-52618929D01*
X71459112Y-52618238D01*
X71459117Y-52618237D01*
X71521806Y-52577005D01*
X71524798Y-52575099D01*
X71588656Y-52535712D01*
X71588656Y-52535711D01*
X71589729Y-52535050D01*
X71604824Y-52522753D01*
X71605692Y-52521832D01*
X71605696Y-52521830D01*
X71657185Y-52467253D01*
X71659631Y-52464735D01*
X72928775Y-51195590D01*
X72963437Y-51171179D01*
X73004297Y-51159871D01*
X73094132Y-51151024D01*
X73282727Y-51093814D01*
X73456538Y-51000910D01*
X73608883Y-50875883D01*
X73733910Y-50723538D01*
X73826814Y-50549727D01*
X73884024Y-50361132D01*
X73887483Y-50326014D01*
X78159614Y-50326014D01*
X78159614Y-54205586D01*
X81739186Y-54205586D01*
X81739186Y-50326014D01*
X78159614Y-50326014D01*
X73887483Y-50326014D01*
X73903341Y-50165000D01*
X73884024Y-49968868D01*
X73826814Y-49780273D01*
X73733910Y-49606462D01*
X73608883Y-49454117D01*
X73456538Y-49329090D01*
X73434091Y-49317092D01*
X73282726Y-49236185D01*
X73094133Y-49178976D01*
X72898000Y-49159659D01*
X72701866Y-49178976D01*
X72513273Y-49236185D01*
X72339463Y-49329089D01*
X72187117Y-49454117D01*
X72062089Y-49606463D01*
X71969185Y-49780273D01*
X71911976Y-49968865D01*
X71903127Y-50058700D01*
X71891818Y-50099562D01*
X71867405Y-50134225D01*
X70845451Y-51156181D01*
X70805223Y-51183061D01*
X70757770Y-51192500D01*
X69032978Y-51192500D01*
X68991204Y-51185251D01*
X68954313Y-51164353D01*
X68884537Y-51107089D01*
X68710726Y-51014185D01*
X68522133Y-50956976D01*
X68326000Y-50937659D01*
X68129866Y-50956976D01*
X67941273Y-51014185D01*
X67767463Y-51107089D01*
X67615117Y-51232117D01*
X67490089Y-51384463D01*
X67397185Y-51558273D01*
X67339976Y-51746866D01*
X67320659Y-51943000D01*
X65647500Y-51943000D01*
X65647500Y-50744978D01*
X65654749Y-50703204D01*
X65675647Y-50666313D01*
X65680446Y-50660464D01*
X65732910Y-50596538D01*
X65825814Y-50422727D01*
X65883024Y-50234132D01*
X65902341Y-50038000D01*
X65883024Y-49841868D01*
X65825814Y-49653273D01*
X65732910Y-49479462D01*
X65607883Y-49327117D01*
X65455538Y-49202090D01*
X65412295Y-49178976D01*
X65281726Y-49109185D01*
X65093133Y-49051976D01*
X64897000Y-49032659D01*
X64700866Y-49051976D01*
X64512273Y-49109185D01*
X64338463Y-49202089D01*
X64186117Y-49327117D01*
X64061089Y-49479463D01*
X63968185Y-49653273D01*
X63910976Y-49841866D01*
X63891659Y-50038000D01*
X63910976Y-50234133D01*
X63968185Y-50422726D01*
X64061089Y-50596537D01*
X64118353Y-50666313D01*
X64139251Y-50703204D01*
X64146500Y-50744978D01*
X64146500Y-56062022D01*
X64139251Y-56103796D01*
X64118353Y-56140687D01*
X64061089Y-56210462D01*
X63968185Y-56384273D01*
X63910976Y-56572866D01*
X63891659Y-56769000D01*
X63473923Y-56769000D01*
X63539814Y-56645727D01*
X63597024Y-56457132D01*
X63616341Y-56261000D01*
X63597024Y-56064868D01*
X63539814Y-55876273D01*
X63446910Y-55702462D01*
X63389647Y-55632687D01*
X63368749Y-55595796D01*
X63361500Y-55554022D01*
X63361500Y-52268978D01*
X63368749Y-52227204D01*
X63389647Y-52190313D01*
X63431650Y-52139132D01*
X63446910Y-52120538D01*
X63539814Y-51946727D01*
X63597024Y-51758132D01*
X63616341Y-51562000D01*
X63597024Y-51365868D01*
X63539814Y-51177273D01*
X63446910Y-51003462D01*
X63321883Y-50851117D01*
X63169538Y-50726090D01*
X63121868Y-50700610D01*
X62995726Y-50633185D01*
X62807133Y-50575976D01*
X62611000Y-50556659D01*
X62414866Y-50575976D01*
X62226273Y-50633185D01*
X62052463Y-50726089D01*
X61900117Y-50851117D01*
X61775089Y-51003463D01*
X61682185Y-51177273D01*
X61624976Y-51365866D01*
X61605659Y-51562000D01*
X61624976Y-51758133D01*
X61682185Y-51946726D01*
X61775089Y-52120537D01*
X61832353Y-52190313D01*
X61853251Y-52227204D01*
X61860500Y-52268978D01*
X61860500Y-55554022D01*
X61853251Y-55595796D01*
X61832353Y-55632687D01*
X61775089Y-55702462D01*
X61682185Y-55876273D01*
X61624976Y-56064866D01*
X61605659Y-56260999D01*
X41199300Y-56260999D01*
X41199300Y-47506295D01*
X42847255Y-47506295D01*
X42847256Y-47506296D01*
X42860485Y-47518828D01*
X43145363Y-47735386D01*
X43451984Y-47919873D01*
X43776746Y-48070124D01*
X44115859Y-48184385D01*
X44465335Y-48261310D01*
X44821078Y-48300000D01*
X45178922Y-48300000D01*
X45534664Y-48261310D01*
X45884140Y-48184385D01*
X46223253Y-48070124D01*
X46548015Y-47919873D01*
X46854636Y-47735386D01*
X47139515Y-47518827D01*
X47152742Y-47506297D01*
X47152743Y-47506295D01*
X79847255Y-47506295D01*
X79847256Y-47506296D01*
X79860485Y-47518828D01*
X80145363Y-47735386D01*
X80451984Y-47919873D01*
X80776746Y-48070124D01*
X81115859Y-48184385D01*
X81465335Y-48261310D01*
X81821078Y-48300000D01*
X82178922Y-48300000D01*
X82534664Y-48261310D01*
X82884140Y-48184385D01*
X83223253Y-48070124D01*
X83548015Y-47919873D01*
X83854636Y-47735386D01*
X84139515Y-47518827D01*
X84152742Y-47506297D01*
X84152743Y-47506295D01*
X82000000Y-45353553D01*
X79847255Y-47506295D01*
X47152743Y-47506295D01*
X45000000Y-45353553D01*
X42847255Y-47506295D01*
X41199300Y-47506295D01*
X41199300Y-44999999D01*
X41695152Y-44999999D01*
X41714525Y-45357310D01*
X41772419Y-45710451D01*
X41868149Y-46055241D01*
X42000601Y-46387670D01*
X42168218Y-46703829D01*
X42369031Y-47000004D01*
X42496441Y-47150003D01*
X42496442Y-47150004D01*
X44646447Y-45000001D01*
X45353553Y-45000001D01*
X47503556Y-47150003D01*
X47630968Y-47000004D01*
X47831781Y-46703829D01*
X47999398Y-46387670D01*
X48131850Y-46055241D01*
X48144146Y-46010954D01*
X55525500Y-46010954D01*
X55528316Y-46052494D01*
X55572963Y-46232022D01*
X55634970Y-46357048D01*
X55655158Y-46397753D01*
X55771060Y-46541940D01*
X55915247Y-46657842D01*
X56080979Y-46740037D01*
X56260505Y-46784683D01*
X56302046Y-46787500D01*
X57649954Y-46787500D01*
X57691495Y-46784683D01*
X57871021Y-46740037D01*
X58036753Y-46657842D01*
X58180940Y-46541940D01*
X58292393Y-46403287D01*
X58333587Y-46370067D01*
X58384885Y-46357048D01*
X58436939Y-46366604D01*
X58480267Y-46396996D01*
X58490236Y-46407825D01*
X58679927Y-46555468D01*
X58679929Y-46555469D01*
X58679933Y-46555472D01*
X58891344Y-46669882D01*
X59118703Y-46747934D01*
X59355808Y-46787500D01*
X59596191Y-46787500D01*
X59596192Y-46787500D01*
X59833297Y-46747934D01*
X60060656Y-46669882D01*
X60272067Y-46555472D01*
X60461764Y-46407825D01*
X60624571Y-46230969D01*
X60624572Y-46230967D01*
X60631530Y-46223409D01*
X60632945Y-46224712D01*
X60666978Y-46193379D01*
X60726000Y-46178432D01*
X60785022Y-46193379D01*
X60819054Y-46224712D01*
X60820470Y-46223409D01*
X60827427Y-46230967D01*
X60827429Y-46230969D01*
X60990236Y-46407825D01*
X60990239Y-46407827D01*
X61179927Y-46555468D01*
X61179929Y-46555469D01*
X61179933Y-46555472D01*
X61391344Y-46669882D01*
X61618703Y-46747934D01*
X61855808Y-46787500D01*
X62096191Y-46787500D01*
X62096192Y-46787500D01*
X62333297Y-46747934D01*
X62560656Y-46669882D01*
X62772067Y-46555472D01*
X62961764Y-46407825D01*
X63124571Y-46230969D01*
X63124572Y-46230967D01*
X63131530Y-46223409D01*
X63132945Y-46224712D01*
X63166978Y-46193379D01*
X63226000Y-46178432D01*
X63285022Y-46193379D01*
X63319054Y-46224712D01*
X63320470Y-46223409D01*
X63327427Y-46230967D01*
X63327429Y-46230969D01*
X63490236Y-46407825D01*
X63490239Y-46407827D01*
X63679927Y-46555468D01*
X63679929Y-46555469D01*
X63679933Y-46555472D01*
X63891344Y-46669882D01*
X64118703Y-46747934D01*
X64355808Y-46787500D01*
X64596191Y-46787500D01*
X64596192Y-46787500D01*
X64833297Y-46747934D01*
X65060656Y-46669882D01*
X65272067Y-46555472D01*
X65461764Y-46407825D01*
X65624571Y-46230969D01*
X65624572Y-46230967D01*
X65631530Y-46223409D01*
X65632945Y-46224712D01*
X65666978Y-46193379D01*
X65726000Y-46178432D01*
X65785022Y-46193379D01*
X65819054Y-46224712D01*
X65820470Y-46223409D01*
X65827427Y-46230967D01*
X65827429Y-46230969D01*
X65990236Y-46407825D01*
X65990239Y-46407827D01*
X66179927Y-46555468D01*
X66179929Y-46555469D01*
X66179933Y-46555472D01*
X66391344Y-46669882D01*
X66618703Y-46747934D01*
X66855808Y-46787500D01*
X67096191Y-46787500D01*
X67096192Y-46787500D01*
X67333297Y-46747934D01*
X67560656Y-46669882D01*
X67772067Y-46555472D01*
X67961764Y-46407825D01*
X68124571Y-46230969D01*
X68183292Y-46141089D01*
X68227207Y-46100336D01*
X68285105Y-46084929D01*
X68343470Y-46098467D01*
X68388674Y-46137789D01*
X68437893Y-46208081D01*
X68604918Y-46375106D01*
X68798423Y-46510600D01*
X69012507Y-46610430D01*
X69225999Y-46667635D01*
X69226000Y-46667636D01*
X69226000Y-45462000D01*
X69726000Y-45462000D01*
X69726000Y-46667635D01*
X69939492Y-46610430D01*
X70153578Y-46510599D01*
X70347078Y-46375109D01*
X70514109Y-46208078D01*
X70649599Y-46014578D01*
X70749430Y-45800492D01*
X70810569Y-45572318D01*
X70820221Y-45462000D01*
X69726000Y-45462000D01*
X69226000Y-45462000D01*
X69226000Y-44999999D01*
X78695152Y-44999999D01*
X78714525Y-45357310D01*
X78772419Y-45710451D01*
X78868149Y-46055241D01*
X79000601Y-46387670D01*
X79168218Y-46703829D01*
X79369031Y-47000004D01*
X79496441Y-47150003D01*
X79496442Y-47150004D01*
X81646447Y-45000001D01*
X82353553Y-45000001D01*
X84503556Y-47150003D01*
X84630968Y-47000004D01*
X84831781Y-46703829D01*
X84999398Y-46387670D01*
X85131850Y-46055241D01*
X85227580Y-45710451D01*
X85285474Y-45357310D01*
X85304847Y-44999999D01*
X85285474Y-44642689D01*
X85227580Y-44289548D01*
X85131850Y-43944758D01*
X84999398Y-43612329D01*
X84831781Y-43296170D01*
X84630968Y-42999995D01*
X84503557Y-42849995D01*
X84503556Y-42849994D01*
X82353553Y-45000000D01*
X82353553Y-45000001D01*
X81646447Y-45000001D01*
X81646447Y-44999999D01*
X79496442Y-42849994D01*
X79496441Y-42849995D01*
X79369030Y-42999995D01*
X79168218Y-43296170D01*
X79000601Y-43612329D01*
X78868149Y-43944758D01*
X78772419Y-44289548D01*
X78714525Y-44642689D01*
X78695152Y-44999999D01*
X69226000Y-44999999D01*
X69226000Y-43756364D01*
X69726000Y-43756364D01*
X69726000Y-44962000D01*
X70820222Y-44962000D01*
X70820221Y-44961999D01*
X70810569Y-44851681D01*
X70749430Y-44623507D01*
X70649599Y-44409421D01*
X70514109Y-44215921D01*
X70347081Y-44048893D01*
X70153576Y-43913399D01*
X69939492Y-43813569D01*
X69726000Y-43756364D01*
X69226000Y-43756364D01*
X69225999Y-43756364D01*
X69012507Y-43813569D01*
X68798421Y-43913400D01*
X68604921Y-44048890D01*
X68437889Y-44215922D01*
X68388673Y-44286210D01*
X68343469Y-44325532D01*
X68285105Y-44339070D01*
X68227207Y-44323663D01*
X68183292Y-44282910D01*
X68124571Y-44193031D01*
X67961764Y-44016175D01*
X67940370Y-43999523D01*
X67772072Y-43868531D01*
X67772068Y-43868528D01*
X67772067Y-43868528D01*
X67560656Y-43754118D01*
X67560655Y-43754117D01*
X67560652Y-43754116D01*
X67333299Y-43676066D01*
X67175226Y-43649688D01*
X67096192Y-43636500D01*
X66855808Y-43636500D01*
X66838933Y-43639316D01*
X66618700Y-43676066D01*
X66391347Y-43754116D01*
X66179927Y-43868531D01*
X65990239Y-44016172D01*
X65990236Y-44016174D01*
X65990236Y-44016175D01*
X65943494Y-44066951D01*
X65820470Y-44200590D01*
X65819054Y-44199287D01*
X65785017Y-44230621D01*
X65726000Y-44245566D01*
X65666983Y-44230621D01*
X65632945Y-44199287D01*
X65631530Y-44200590D01*
X65508506Y-44066951D01*
X65461764Y-44016175D01*
X65440370Y-43999523D01*
X65272072Y-43868531D01*
X65272068Y-43868528D01*
X65272067Y-43868528D01*
X65060656Y-43754118D01*
X65060655Y-43754117D01*
X65060652Y-43754116D01*
X64833299Y-43676066D01*
X64675226Y-43649688D01*
X64596192Y-43636500D01*
X64355808Y-43636500D01*
X64338933Y-43639316D01*
X64118700Y-43676066D01*
X63891347Y-43754116D01*
X63679927Y-43868531D01*
X63490239Y-44016172D01*
X63490236Y-44016174D01*
X63490236Y-44016175D01*
X63443494Y-44066951D01*
X63320470Y-44200590D01*
X63319054Y-44199287D01*
X63285017Y-44230621D01*
X63226000Y-44245566D01*
X63166983Y-44230621D01*
X63132945Y-44199287D01*
X63131530Y-44200590D01*
X63008506Y-44066951D01*
X62961764Y-44016175D01*
X62940370Y-43999523D01*
X62772072Y-43868531D01*
X62772068Y-43868528D01*
X62772067Y-43868528D01*
X62560656Y-43754118D01*
X62560655Y-43754117D01*
X62560652Y-43754116D01*
X62333299Y-43676066D01*
X62175226Y-43649688D01*
X62096192Y-43636500D01*
X61855808Y-43636500D01*
X61838933Y-43639316D01*
X61618700Y-43676066D01*
X61391347Y-43754116D01*
X61179927Y-43868531D01*
X60990239Y-44016172D01*
X60990236Y-44016174D01*
X60990236Y-44016175D01*
X60943494Y-44066951D01*
X60820470Y-44200590D01*
X60819054Y-44199287D01*
X60785017Y-44230621D01*
X60726000Y-44245566D01*
X60666983Y-44230621D01*
X60632945Y-44199287D01*
X60631530Y-44200590D01*
X60508506Y-44066951D01*
X60461764Y-44016175D01*
X60440370Y-43999523D01*
X60272072Y-43868531D01*
X60272068Y-43868528D01*
X60272067Y-43868528D01*
X60060656Y-43754118D01*
X60060655Y-43754117D01*
X60060652Y-43754116D01*
X59833299Y-43676066D01*
X59675226Y-43649688D01*
X59596192Y-43636500D01*
X59355808Y-43636500D01*
X59338933Y-43639316D01*
X59118700Y-43676066D01*
X58891347Y-43754116D01*
X58679927Y-43868531D01*
X58490237Y-44016173D01*
X58480265Y-44027006D01*
X58436937Y-44057396D01*
X58384883Y-44066951D01*
X58333586Y-44053932D01*
X58292390Y-44020709D01*
X58180940Y-43882060D01*
X58036753Y-43766158D01*
X58017005Y-43756364D01*
X57871022Y-43683963D01*
X57691494Y-43639316D01*
X57649954Y-43636500D01*
X56302046Y-43636500D01*
X56260505Y-43639316D01*
X56080977Y-43683963D01*
X55915248Y-43766157D01*
X55771060Y-43882060D01*
X55655157Y-44026248D01*
X55572963Y-44191977D01*
X55528316Y-44371505D01*
X55525500Y-44413046D01*
X55525500Y-46010954D01*
X48144146Y-46010954D01*
X48227580Y-45710451D01*
X48285474Y-45357310D01*
X48304847Y-44999999D01*
X48285474Y-44642689D01*
X48227580Y-44289548D01*
X48131850Y-43944758D01*
X47999398Y-43612329D01*
X47831781Y-43296170D01*
X47630968Y-42999995D01*
X47503557Y-42849995D01*
X47503556Y-42849994D01*
X45353553Y-45000000D01*
X45353553Y-45000001D01*
X44646447Y-45000001D01*
X44646447Y-45000000D01*
X42496442Y-42849994D01*
X42496441Y-42849995D01*
X42369030Y-42999995D01*
X42168218Y-43296170D01*
X42000601Y-43612329D01*
X41868149Y-43944758D01*
X41772419Y-44289548D01*
X41714525Y-44642689D01*
X41695152Y-44999999D01*
X41199300Y-44999999D01*
X41199300Y-42493703D01*
X42847255Y-42493703D01*
X45000000Y-44646447D01*
X45000001Y-44646447D01*
X47152743Y-42493703D01*
X79847255Y-42493703D01*
X82000000Y-44646447D01*
X82000001Y-44646447D01*
X84152743Y-42493703D01*
X84152742Y-42493702D01*
X84139514Y-42481171D01*
X83854636Y-42264613D01*
X83548015Y-42080126D01*
X83223253Y-41929875D01*
X82884140Y-41815614D01*
X82534664Y-41738689D01*
X82178922Y-41700000D01*
X81821078Y-41700000D01*
X81465335Y-41738689D01*
X81115859Y-41815614D01*
X80776746Y-41929875D01*
X80451984Y-42080126D01*
X80145363Y-42264613D01*
X79860486Y-42481170D01*
X79847256Y-42493702D01*
X79847255Y-42493703D01*
X47152743Y-42493703D01*
X47152742Y-42493702D01*
X47139514Y-42481171D01*
X46854636Y-42264613D01*
X46548015Y-42080126D01*
X46223253Y-41929875D01*
X45884140Y-41815614D01*
X45534664Y-41738689D01*
X45178922Y-41700000D01*
X44821078Y-41700000D01*
X44465335Y-41738689D01*
X44115859Y-41815614D01*
X43776746Y-41929875D01*
X43451984Y-42080126D01*
X43145363Y-42264613D01*
X42860486Y-42481170D01*
X42847256Y-42493702D01*
X42847255Y-42493703D01*
X41199300Y-42493703D01*
X41199300Y-40510000D01*
X41215913Y-40448000D01*
X41261300Y-40402613D01*
X41323300Y-40386000D01*
X85804200Y-40386000D01*
X85866200Y-40402613D01*
G37*
%TD.AperFunction*%
%TD*%
M02*
