%TF.GenerationSoftware,KiCad,Pcbnew,7.0.1*%
%TF.CreationDate,2023-04-13T11:59:35+02:00*%
%TF.ProjectId,PCBGYRO,50434247-5952-44f2-9e6b-696361645f70,rev?*%
%TF.SameCoordinates,Original*%
%TF.FileFunction,Legend,Top*%
%TF.FilePolarity,Positive*%
%FSLAX46Y46*%
G04 Gerber Fmt 4.6, Leading zero omitted, Abs format (unit mm)*
G04 Created by KiCad (PCBNEW 7.0.1) date 2023-04-13 11:59:35*
%MOMM*%
%LPD*%
G01*
G04 APERTURE LIST*
%ADD10C,0.150000*%
%ADD11C,0.254000*%
%ADD12C,0.120000*%
%ADD13C,0.127000*%
%ADD14C,0.200000*%
G04 APERTURE END LIST*
D10*
%TO.C,H4*%
X77819095Y-42626619D02*
X77819095Y-41626619D01*
X77819095Y-42102809D02*
X78390523Y-42102809D01*
X78390523Y-42626619D02*
X78390523Y-41626619D01*
X79295285Y-41959952D02*
X79295285Y-42626619D01*
X79057190Y-41579000D02*
X78819095Y-42293285D01*
X78819095Y-42293285D02*
X79438142Y-42293285D01*
%TO.C,H2*%
X81238095Y-66662619D02*
X81238095Y-65662619D01*
X81238095Y-66138809D02*
X81809523Y-66138809D01*
X81809523Y-66662619D02*
X81809523Y-65662619D01*
X82238095Y-65757857D02*
X82285714Y-65710238D01*
X82285714Y-65710238D02*
X82380952Y-65662619D01*
X82380952Y-65662619D02*
X82619047Y-65662619D01*
X82619047Y-65662619D02*
X82714285Y-65710238D01*
X82714285Y-65710238D02*
X82761904Y-65757857D01*
X82761904Y-65757857D02*
X82809523Y-65853095D01*
X82809523Y-65853095D02*
X82809523Y-65948333D01*
X82809523Y-65948333D02*
X82761904Y-66091190D01*
X82761904Y-66091190D02*
X82190476Y-66662619D01*
X82190476Y-66662619D02*
X82809523Y-66662619D01*
%TO.C,C4*%
X52277380Y-60110666D02*
X52325000Y-60158285D01*
X52325000Y-60158285D02*
X52372619Y-60301142D01*
X52372619Y-60301142D02*
X52372619Y-60396380D01*
X52372619Y-60396380D02*
X52325000Y-60539237D01*
X52325000Y-60539237D02*
X52229761Y-60634475D01*
X52229761Y-60634475D02*
X52134523Y-60682094D01*
X52134523Y-60682094D02*
X51944047Y-60729713D01*
X51944047Y-60729713D02*
X51801190Y-60729713D01*
X51801190Y-60729713D02*
X51610714Y-60682094D01*
X51610714Y-60682094D02*
X51515476Y-60634475D01*
X51515476Y-60634475D02*
X51420238Y-60539237D01*
X51420238Y-60539237D02*
X51372619Y-60396380D01*
X51372619Y-60396380D02*
X51372619Y-60301142D01*
X51372619Y-60301142D02*
X51420238Y-60158285D01*
X51420238Y-60158285D02*
X51467857Y-60110666D01*
X51705952Y-59253523D02*
X52372619Y-59253523D01*
X51325000Y-59491618D02*
X52039285Y-59729713D01*
X52039285Y-59729713D02*
X52039285Y-59110666D01*
%TO.C,C3*%
X72089380Y-62497166D02*
X72137000Y-62544785D01*
X72137000Y-62544785D02*
X72184619Y-62687642D01*
X72184619Y-62687642D02*
X72184619Y-62782880D01*
X72184619Y-62782880D02*
X72137000Y-62925737D01*
X72137000Y-62925737D02*
X72041761Y-63020975D01*
X72041761Y-63020975D02*
X71946523Y-63068594D01*
X71946523Y-63068594D02*
X71756047Y-63116213D01*
X71756047Y-63116213D02*
X71613190Y-63116213D01*
X71613190Y-63116213D02*
X71422714Y-63068594D01*
X71422714Y-63068594D02*
X71327476Y-63020975D01*
X71327476Y-63020975D02*
X71232238Y-62925737D01*
X71232238Y-62925737D02*
X71184619Y-62782880D01*
X71184619Y-62782880D02*
X71184619Y-62687642D01*
X71184619Y-62687642D02*
X71232238Y-62544785D01*
X71232238Y-62544785D02*
X71279857Y-62497166D01*
X71184619Y-62163832D02*
X71184619Y-61544785D01*
X71184619Y-61544785D02*
X71565571Y-61878118D01*
X71565571Y-61878118D02*
X71565571Y-61735261D01*
X71565571Y-61735261D02*
X71613190Y-61640023D01*
X71613190Y-61640023D02*
X71660809Y-61592404D01*
X71660809Y-61592404D02*
X71756047Y-61544785D01*
X71756047Y-61544785D02*
X71994142Y-61544785D01*
X71994142Y-61544785D02*
X72089380Y-61592404D01*
X72089380Y-61592404D02*
X72137000Y-61640023D01*
X72137000Y-61640023D02*
X72184619Y-61735261D01*
X72184619Y-61735261D02*
X72184619Y-62020975D01*
X72184619Y-62020975D02*
X72137000Y-62116213D01*
X72137000Y-62116213D02*
X72089380Y-62163832D01*
%TO.C,H3*%
X46736095Y-42626619D02*
X46736095Y-41626619D01*
X46736095Y-42102809D02*
X47307523Y-42102809D01*
X47307523Y-42626619D02*
X47307523Y-41626619D01*
X47688476Y-41626619D02*
X48307523Y-41626619D01*
X48307523Y-41626619D02*
X47974190Y-42007571D01*
X47974190Y-42007571D02*
X48117047Y-42007571D01*
X48117047Y-42007571D02*
X48212285Y-42055190D01*
X48212285Y-42055190D02*
X48259904Y-42102809D01*
X48259904Y-42102809D02*
X48307523Y-42198047D01*
X48307523Y-42198047D02*
X48307523Y-42436142D01*
X48307523Y-42436142D02*
X48259904Y-42531380D01*
X48259904Y-42531380D02*
X48212285Y-42579000D01*
X48212285Y-42579000D02*
X48117047Y-42626619D01*
X48117047Y-42626619D02*
X47831333Y-42626619D01*
X47831333Y-42626619D02*
X47736095Y-42579000D01*
X47736095Y-42579000D02*
X47688476Y-42531380D01*
%TO.C,H1*%
X44238095Y-66662619D02*
X44238095Y-65662619D01*
X44238095Y-66138809D02*
X44809523Y-66138809D01*
X44809523Y-66662619D02*
X44809523Y-65662619D01*
X45809523Y-66662619D02*
X45238095Y-66662619D01*
X45523809Y-66662619D02*
X45523809Y-65662619D01*
X45523809Y-65662619D02*
X45428571Y-65805476D01*
X45428571Y-65805476D02*
X45333333Y-65900714D01*
X45333333Y-65900714D02*
X45238095Y-65948333D01*
%TO.C,C1*%
X52277380Y-54877166D02*
X52325000Y-54924785D01*
X52325000Y-54924785D02*
X52372619Y-55067642D01*
X52372619Y-55067642D02*
X52372619Y-55162880D01*
X52372619Y-55162880D02*
X52325000Y-55305737D01*
X52325000Y-55305737D02*
X52229761Y-55400975D01*
X52229761Y-55400975D02*
X52134523Y-55448594D01*
X52134523Y-55448594D02*
X51944047Y-55496213D01*
X51944047Y-55496213D02*
X51801190Y-55496213D01*
X51801190Y-55496213D02*
X51610714Y-55448594D01*
X51610714Y-55448594D02*
X51515476Y-55400975D01*
X51515476Y-55400975D02*
X51420238Y-55305737D01*
X51420238Y-55305737D02*
X51372619Y-55162880D01*
X51372619Y-55162880D02*
X51372619Y-55067642D01*
X51372619Y-55067642D02*
X51420238Y-54924785D01*
X51420238Y-54924785D02*
X51467857Y-54877166D01*
X52372619Y-53924785D02*
X52372619Y-54496213D01*
X52372619Y-54210499D02*
X51372619Y-54210499D01*
X51372619Y-54210499D02*
X51515476Y-54305737D01*
X51515476Y-54305737D02*
X51610714Y-54400975D01*
X51610714Y-54400975D02*
X51658333Y-54496213D01*
%TO.C,C2*%
X74949380Y-57925166D02*
X74997000Y-57972785D01*
X74997000Y-57972785D02*
X75044619Y-58115642D01*
X75044619Y-58115642D02*
X75044619Y-58210880D01*
X75044619Y-58210880D02*
X74997000Y-58353737D01*
X74997000Y-58353737D02*
X74901761Y-58448975D01*
X74901761Y-58448975D02*
X74806523Y-58496594D01*
X74806523Y-58496594D02*
X74616047Y-58544213D01*
X74616047Y-58544213D02*
X74473190Y-58544213D01*
X74473190Y-58544213D02*
X74282714Y-58496594D01*
X74282714Y-58496594D02*
X74187476Y-58448975D01*
X74187476Y-58448975D02*
X74092238Y-58353737D01*
X74092238Y-58353737D02*
X74044619Y-58210880D01*
X74044619Y-58210880D02*
X74044619Y-58115642D01*
X74044619Y-58115642D02*
X74092238Y-57972785D01*
X74092238Y-57972785D02*
X74139857Y-57925166D01*
X74139857Y-57544213D02*
X74092238Y-57496594D01*
X74092238Y-57496594D02*
X74044619Y-57401356D01*
X74044619Y-57401356D02*
X74044619Y-57163261D01*
X74044619Y-57163261D02*
X74092238Y-57068023D01*
X74092238Y-57068023D02*
X74139857Y-57020404D01*
X74139857Y-57020404D02*
X74235095Y-56972785D01*
X74235095Y-56972785D02*
X74330333Y-56972785D01*
X74330333Y-56972785D02*
X74473190Y-57020404D01*
X74473190Y-57020404D02*
X75044619Y-57591832D01*
X75044619Y-57591832D02*
X75044619Y-56972785D01*
%TO.C,J1*%
X62892666Y-41124619D02*
X62892666Y-41838904D01*
X62892666Y-41838904D02*
X62845047Y-41981761D01*
X62845047Y-41981761D02*
X62749809Y-42077000D01*
X62749809Y-42077000D02*
X62606952Y-42124619D01*
X62606952Y-42124619D02*
X62511714Y-42124619D01*
X63892666Y-42124619D02*
X63321238Y-42124619D01*
X63606952Y-42124619D02*
X63606952Y-41124619D01*
X63606952Y-41124619D02*
X63511714Y-41267476D01*
X63511714Y-41267476D02*
X63416476Y-41362714D01*
X63416476Y-41362714D02*
X63321238Y-41410333D01*
%TO.C,D1*%
X62558705Y-66096219D02*
X62558705Y-65096219D01*
X62558705Y-65096219D02*
X62796800Y-65096219D01*
X62796800Y-65096219D02*
X62939657Y-65143838D01*
X62939657Y-65143838D02*
X63034895Y-65239076D01*
X63034895Y-65239076D02*
X63082514Y-65334314D01*
X63082514Y-65334314D02*
X63130133Y-65524790D01*
X63130133Y-65524790D02*
X63130133Y-65667647D01*
X63130133Y-65667647D02*
X63082514Y-65858123D01*
X63082514Y-65858123D02*
X63034895Y-65953361D01*
X63034895Y-65953361D02*
X62939657Y-66048600D01*
X62939657Y-66048600D02*
X62796800Y-66096219D01*
X62796800Y-66096219D02*
X62558705Y-66096219D01*
X64082514Y-66096219D02*
X63511086Y-66096219D01*
X63796800Y-66096219D02*
X63796800Y-65096219D01*
X63796800Y-65096219D02*
X63701562Y-65239076D01*
X63701562Y-65239076D02*
X63606324Y-65334314D01*
X63606324Y-65334314D02*
X63511086Y-65381933D01*
%TO.C,L1*%
X57287619Y-66206666D02*
X57287619Y-66682856D01*
X57287619Y-66682856D02*
X56287619Y-66682856D01*
X57287619Y-65349523D02*
X57287619Y-65920951D01*
X57287619Y-65635237D02*
X56287619Y-65635237D01*
X56287619Y-65635237D02*
X56430476Y-65730475D01*
X56430476Y-65730475D02*
X56525714Y-65825713D01*
X56525714Y-65825713D02*
X56573333Y-65920951D01*
D11*
%TO.C,IC1*%
X62260237Y-59515526D02*
X62260237Y-58245526D01*
X63590714Y-59394573D02*
X63530238Y-59455050D01*
X63530238Y-59455050D02*
X63348809Y-59515526D01*
X63348809Y-59515526D02*
X63227857Y-59515526D01*
X63227857Y-59515526D02*
X63046428Y-59455050D01*
X63046428Y-59455050D02*
X62925476Y-59334097D01*
X62925476Y-59334097D02*
X62864999Y-59213145D01*
X62864999Y-59213145D02*
X62804523Y-58971240D01*
X62804523Y-58971240D02*
X62804523Y-58789811D01*
X62804523Y-58789811D02*
X62864999Y-58547907D01*
X62864999Y-58547907D02*
X62925476Y-58426954D01*
X62925476Y-58426954D02*
X63046428Y-58306002D01*
X63046428Y-58306002D02*
X63227857Y-58245526D01*
X63227857Y-58245526D02*
X63348809Y-58245526D01*
X63348809Y-58245526D02*
X63530238Y-58306002D01*
X63530238Y-58306002D02*
X63590714Y-58366478D01*
X64800238Y-59515526D02*
X64074523Y-59515526D01*
X64437380Y-59515526D02*
X64437380Y-58245526D01*
X64437380Y-58245526D02*
X64316428Y-58426954D01*
X64316428Y-58426954D02*
X64195476Y-58547907D01*
X64195476Y-58547907D02*
X64074523Y-58608383D01*
D12*
%TO.C,C4*%
X52830000Y-60090267D02*
X52830000Y-59797733D01*
X53850000Y-60090267D02*
X53850000Y-59797733D01*
%TO.C,C3*%
X72642000Y-62476767D02*
X72642000Y-62184233D01*
X73662000Y-62476767D02*
X73662000Y-62184233D01*
%TO.C,C1*%
X52830000Y-54856767D02*
X52830000Y-54564233D01*
X53850000Y-54856767D02*
X53850000Y-54564233D01*
%TO.C,C2*%
X73662000Y-57612233D02*
X73662000Y-57904767D01*
X72642000Y-57612233D02*
X72642000Y-57904767D01*
%TO.C,J1*%
X54126000Y-42462000D02*
X54126000Y-43712000D01*
X54416000Y-42752000D02*
X54416000Y-48722000D01*
X54416000Y-48722000D02*
X72036000Y-48722000D01*
X54426000Y-42762000D02*
X54426000Y-43512000D01*
X54426000Y-43512000D02*
X56226000Y-43512000D01*
X54426000Y-45012000D02*
X55176000Y-45012000D01*
X55176000Y-45012000D02*
X55176000Y-47962000D01*
X55176000Y-47962000D02*
X63226000Y-47962000D01*
X55376000Y-42462000D02*
X54126000Y-42462000D01*
X56226000Y-42762000D02*
X54426000Y-42762000D01*
X56226000Y-43512000D02*
X56226000Y-42762000D01*
X57726000Y-42762000D02*
X57726000Y-43512000D01*
X57726000Y-43512000D02*
X68726000Y-43512000D01*
X68726000Y-42762000D02*
X57726000Y-42762000D01*
X68726000Y-43512000D02*
X68726000Y-42762000D01*
X70226000Y-42762000D02*
X70226000Y-43512000D01*
X70226000Y-43512000D02*
X72026000Y-43512000D01*
X71276000Y-45012000D02*
X71276000Y-47962000D01*
X71276000Y-47962000D02*
X63226000Y-47962000D01*
X72026000Y-42762000D02*
X70226000Y-42762000D01*
X72026000Y-43512000D02*
X72026000Y-42762000D01*
X72026000Y-45012000D02*
X71276000Y-45012000D01*
X72036000Y-42752000D02*
X54416000Y-42752000D01*
X72036000Y-48722000D02*
X72036000Y-42752000D01*
D13*
%TO.C,D1*%
X64764000Y-68414000D02*
X61964000Y-68414000D01*
X64764000Y-68414000D02*
X61964000Y-68414000D01*
X64714000Y-66714000D02*
X62014000Y-66714000D01*
X62014000Y-66714000D02*
X64714000Y-66714000D01*
D14*
X66489000Y-67564000D02*
G75*
G03*
X66489000Y-67564000I-125000J0D01*
G01*
D13*
%TO.C,L1*%
X54940000Y-64735000D02*
X54940000Y-67345000D01*
X51740000Y-64735000D02*
X51740000Y-67345000D01*
D14*
%TO.C,IC1*%
X57825000Y-53783000D02*
X59525000Y-53783000D01*
X59875000Y-53778000D02*
X67125000Y-53778000D01*
X59875000Y-64078000D02*
X59875000Y-53778000D01*
X67125000Y-53778000D02*
X67125000Y-64078000D01*
X67125000Y-64078000D02*
X59875000Y-64078000D01*
%TD*%
M02*
